# xmcd
#
# Track frame offsets:
#	150
#	16055
#	33197
#	48540
#	63590
#	79772
#	92400
#	108602
#	123995
#	138252
#	153145
#	171662
#	189965
#	207175
#	224530
#	240197
#
# Disc length: 3393
#
# Revision: 2
# Processed by: cddbd v1.5.1PL0 Copyright (c) Steve Scherf et al.
# Submitted via: dBpowerAMP V4.0
# Normalized: r1:TSWAP
#
DISCID=cf0d3f10
DTITLE=Various Artist - Heart of The Country '94
DYEAR=1994
DGENRE=Country
TTITLE0=Doug Stone - I Never Knew Love
TTITLE1=Rodney Crowell - Lovin' All Night
TTITLE2=Tracy byrd - Someone to Give my Love To
TTITLE3=Suzy bogguss - Just Like The Waether
TTITLE4=Jason McCoy - Take it From Me
TTITLE5=Cassandra Vasik - Fortune Smiled on Me
TTITLE6=Mark Collie - Something's Gonna Change Her Mind
TTITLE7=Billy Dean - We Just Disagree
TTITLE8=Lee Roy parnell - Tender Moment
TTITLE9=Steve Wariner - If I Didn't Love You
TTITLE10=One Horse Bible - Baby Don't Cry
TTITLE11=Joan Kennedy - Circle of Love
TTITLE12=Ron Hynes - Cryer's Paradise
TTITLE13=Larry Stewart - I'll Cry Tomorrow
TTITLE14=Tanya tucker - Soon
TTITLE15=Mark Chesnutt - Woman Sensuous Woman
EXTD=
EXTT0=
EXTT1=
EXTT2=
EXTT3=
EXTT4=
EXTT5=
EXTT6=
EXTT7=
EXTT8=
EXTT9=
EXTT10=
EXTT11=
EXTT12=
EXTT13=
EXTT14=
EXTT15=
PLAYORDER=
